ply
format ascii 1.0
comment PYTHON generated
element vertex 1120
property float x
property float y
property float z
end_header
1743.0 486.76312256 3.24221969
1771.0 450.35275269 0.81077218
1770.99987793 467.7678833 2.90933251
1706.99987793 374.49996948 -27.04997444
1857.86279297 356.69723511 -5.83802652
1835.40002441 495.00650024 -3.87487006
1791.0 495.42855835 -2.94580936
1786.0 496.66986084 2.37867236
1821.3034668 372.01419067 3.56526256
1760.0 456.78173828 -2.28980827
1835.64526367 528.29425049 3.34050107
1742.99987793 465.7449646 1.18748474
1826.68444824 372.35461426 3.03583217
1811.0 491.68563843 -1.28584635
1811.0 492.78735352 -3.15103579
1771.0 480.82028198 1.8389523
1787.0 453.97885132 -3.97276831
1855.63366699 372.59997559 3.65105104
1811.0 492.43887329 2.75600863
1742.99987793 500.97351074 -1.69744718
1742.99987793 507.49993896 10.00002766
1824.0 371.99996948 -4.59997749
1811.0 534.0 -9.99996567
1742.99987793 484.42562866 -4.40365076
1704.52905273 342.49996948 -37.6622467
1786.0 469.5802002 -2.80025601
1806.0 483.83084106 -0.99754333
1760.0 479.62023926 0.97514963
1770.95019531 396.3062439 27.75229073
1816.0 513.97955322 0.34915885
1827.07617188 372.59997559 -2.55648637
1835.94580078 521.83007813 1.24235213
1760.0 449.62023926 0.97514784
1760.0 449.64648438 1.07261205
1693.32128906 380.86968994 -27.04997444
1743.26049805 483.49996948 -4.10532331
1836.0 492.95223999 -3.44532204
1705.87976074 333.49996948 35.77059174
1825.91381836 379.99996948 -4.07271671
1731.4708252 342.49996948 37.66228485
1836.0 521.53076172 -0.54257828
1731.19873047 333.49996948 28.61804962
1837.65100098 384.99996948 4.29608202
1835.64526367 522.11621094 1.1571033
1811.0 500.02175903 2.01870346
1857.8572998 356.69622803 5.84190035
1856.7746582 371.99996948 -3.66864991
1806.0 512.91381836 -4.07270908
1770.99987793 453.99996948 -28.99996948
1816.0 491.65707397 1.17871785
1820.20288086 372.11239624 -1.90963554
1791.99987793 493.75994873 -3.31542587
1827.25 385.0 2.98e-05
1855.73193359 364.0 -2.99997807
1806.0 496.52365112 -4.46939516
1744.0 352.5 -38.9999733
1760.0 452.35827637 3.83505201
1770.99987793 458.75003052 -11.48888874
1811.0 477.00286865 2.06864119
1823.47631836 371.99996948 -4.46940279
1743.0 449.61697388 5.21272278
1735.0 478.07009888 -3.57302642
1816.0 506.86746216 -1.78115118
1835.54638672 499.85083008 -1.14724362
1788.0 480.52032471 -0.34894726
1811.0 477.83282471 3.19694304
1836.0 512.24060059 -2.73140979
1822.109375 385.0 -2.6434958
1853.52111816 378.99996948 -3.9727726
1822.47131348 372.59997559 -3.6989429
1741.87976074 333.49996948 35.77059174
1806.0 495.6217041 -3.22788954
1858.96557617 371.99996948 -4.93374586
1819.0 530.0 3.159e-05
1742.99987793 440.62490845 27.25556183
1787.0 487.49996948 2.906e-05
1862.0 384.99996948 -9.99997616
1811.0 530.48394775 0.37896317
1742.99987793 487.21032715 -2.5461874
1791.0 497.18740845 -2.75495815
1819.92724609 379.99996948 1.91386759
1824.0 372.59997559 4.00002193
1742.99987793 480.22705078 3.08838105
1835.40002441 495.99996948 4.00002909
1734.7611084 403.19107056 28.00001526
1820.7166748 378.99996948 2.28462124
1826.3638916 355.75823975 6.58830929
1791.0 511.64938354 -2.92944908
1771.0 500.64163208 -2.1007061
1836.0 509.07104492 -2.29768085
1735.0 487.9609375 -4.72753763
1836.81542969 379.99996948 -3.93429542
1821.76953125 385.0 2.363801
1770.99987793 470.6819458 2.05893064
1743.01416016 456.19650269 3.56526756
1836.0 502.47686768 0.54737556
1770.99987793 467.25930786 2.73147225
1851.25476074 378.99996948 2.90929484
1791.0 482.81137085 -2.39282846
1821.03283691 385.0 -1.32909417
1835.546875 525.99993896 -4.01823854
1770.99987793 465.49996948 2.98e-05
1791.99987793 528.30285645 -3.27226496
1836.0 522.47680664 -2.95756388
1743.35473633 451.84277344 3.69815779
1855.73681641 408.5 2.74726748
1822.98706055 372.20251465 4.02504253
1816.0 525.47625732 -4.46939325
1819.0 499.67327881 -1.58324265
1760.0 453.88833618 -3.98107529
1835.64526367 522.37957764 -1.82071912
1835.98583984 497.09091187 -4.33494997
1789.59619141 480.99990845 -0.5684793
1847.73803711 364.0 -1.74282289
1835.64526367 521.96038818 -0.3231115
1744.0 352.5 -38.9999733
1843.1751709 379.99996948 -1.68871152
1760.0 485.29434204 -3.57491422
1806.0 510.65075684 -2.97960639
1700.85302734 342.49996948 -26.55619431
1827.74328613 406.0 1.41770601
1811.0 514.15106201 -3.21256661
1820.06567383 371.99996948 2.18452358
1822.98425293 385.0 -3.0888617
1742.14440918 342.49996948 35.1203804
1835.98583984 492.10083008 2.18611741
1771.0 498.49996948 -2.99999118
1844.0 490.57009888 3.57308459
1819.86743164 379.99996948 -1.7811588
1770.99987793 500.14907837 -2.50605488
1816.0 527.206604 4.33523226
1789.80004883 523.0534668 -1.37382746
1743.26037598 451.65542603 -3.66768384
1806.0 509.79327393 4.3352313
1820.25402832 372.59997559 -1.41175973
1816.0 521.88421631 -1.82518291
1835.94580078 500.16986084 -1.24229133
1826.43395996 408.5 2.15339661
1791.0 498.77069092 -1.15404475
1702.5 342.49996948 39.00001526
1820.00280762 379.99996948 -2.0685904
1760.0 454.49783325 3.87355947
1771.0 486.63647461 0.85130334
1743.59997559 457.3793335 0.97650212
1702.5 342.49996948 39.00001526
1791.0 497.74511719 2.44019341
1820.81201172 406.0 -2.41953754
1835.79748535 524.98706055 -4.02498913
1835.73962402 494.15539551 3.66774035
1862.0 379.99996948 10.00002098
1819.86743164 384.99996948 1.78120446
1760.0 452.45223999 3.86037326
1836.0 499.22421265 3.13998556
1816.0 491.97814941 -2.01864457
1743.0 457.02313232 -2.95756769
1854.43688965 384.99996948 -4.4787178
1791.99987793 527.14160156 3.83482933
1806.0 521.86743164 1.78121245
1816.0 494.8899231 4.36138296
1770.99987793 484.70663452 4.33523226
1811.0 479.39135742 -4.20704508
1811.0 494.1585083 4.1084094
1811.0 478.73376465 -3.88769388
1854.54724121 371.99996948 -6.47689295
1816.0 530.33520508 -1.20662665
1835.40002441 496.64334106 -3.94968462
1850.60998535 372.11239624 -2.56391549
1819.0 493.6730957 3.25358129
1835.94580078 522.52972412 -2.62464523
1742.99987793 442.86520386 -24.15309906
1806.0 523.70922852 2.30550766
1743.59997559 452.7454834 3.92998385
1821.0 406.99996948 2.426e-05
1699.99987793 333.49996948 -26.49997711
1835.64526367 498.68441772 3.0358398
1788.0 483.2086792 2.98585582
1816.0 524.31121826 4.17520857
1835.73962402 492.01870728 -1.00190651
1851.22253418 371.99996948 3.67138076
1856.27368164 406.0 3.29243183
1742.99987793 486.67169189 3.19224977
1770.99987793 465.81997681 -1.34806705
1806.0 509.31124878 4.17520714
1744.0 342.49996948 27.00002098
1735.0 450.92715454 5.96916723
1770.99987793 454.26947021 -17.69398308
1743.05419922 449.18057251 -0.52366549
1819.0 496.47885132 3.97282457
1691.99987793 352.5 -26.99997711
1824.0 372.01416016 -4.47025728
1806.0 497.91381836 -4.07271004
1841.80383301 355.03720093 10.00001907
1819.0 499.69274902 -1.544469
1844.0 499.46405029 2.977e-05
1851.81542969 379.99996948 -3.93429542
1742.28466797 333.49996948 -31.34203339
1735.0 477.18945313 1.55967867
1789.80004883 493.66775513 2.26402283
1706.46472168 333.49996948 32.3254509
1854.87133789 385.0 3.13100219
1697.5 342.49996948 39.00001526
1737.75537109 406.89587402 39.00001526
1858.56872559 371.99996948 0.53535211
1743.26037598 457.48123169 -1.00190854
1771.0 497.27282715 -2.73862481
1791.99987793 499.29876709 -2.26420546
1836.0 491.81176758 1.90237594
1770.99987793 501.48583984 -0.29124692
1827.4465332 384.99996948 2.89332271
1806.0 511.80435181 2.89013982
1847.5 371.99996948 2.217e-05
1836.0 483.75494385 1.18748319
1852.29162598 371.99996948 -6.78874254
1732.1842041 342.49996948 -38.26217651
1787.0 485.73999023 -3.31542611
1789.80004883 497.81265259 -2.69815326
1856.30285645 406.0 -3.27227235
1822.85827637 406.0 -3.83500075
1741.87976074 333.49996948 -30.22939873
1811.0 477.06564331 -2.1844728
1806.0 512.86096191 4.09719038
1850.97888184 406.0 -2.62634015
1806.0 484.66021729 2.61777806
1806.0 493.57821655 2.16990709
1786.0 467.41964722 2.80028582
1857.99353027 372.01419067 2.00843644
1864.47314453 407.19793701 -9.99999046
1836.0 524.85241699 -4.45453072
1735.0 453.12054443 6.48894453
1830.51513672 355.34118652 2.5550437
1742.99987793 465.90625 -1.50753558
1710.95324707 393.69326782 27.05002213
1789.19995117 450.27120972 0.37786365
1836.0 521.81176758 1.90237772
1857.87963867 378.99996948 0.97514361
1806.0 515.35766602 -1.12257302
1819.0 526.99780273 -3.87350106
1791.0 513.94573975 0.57142973
1836.0 491.53900146 4.72759581
1722.26928711 395.30966187 27.05002213
1791.0 526.85650635 2.87575078
1816.0 510.26779175 -2.90940285
1835.54638672 492.01104736 0.48365495
1735.0 450.58410645 -5.8092556
1849.6385498 379.99996948 1.11006868
1835.88769531 525.99993896 4.25049925
1819.0 493.16241455 2.81932545
1770.99987793 487.51992798 2.02217317
1771.0 467.69549561 2.89013982
1789.19995117 453.49993896 -3.24997306
1760.0 457.47280884 -0.46547705
1816.0 493.75283813 -3.8987453
1735.0 456.96408081 2.724e-05
1822.71411133 379.99996948 -4.31430435
1743.59997559 479.49996948 2.858e-05
1806.0 478.01974487 0.34999847
1856.90490723 356.52813721 -6.36776733
1806.0 492.8170166 0.66113472
1853.20800781 378.99996948 -3.92245221
1835.24145508 537.99401855 -9.99996758
1842.19689941 379.99996948 -3.1671319
1836.0 491.38897705 -4.58132696
1851.17285156 378.99996948 -2.82971811
1770.99987793 479.48001099 -2.02211356
1851.04089355 385.0 -1.34402514
1791.0 481.94244385 2.84948945
1743.0 477.04412842 -0.75641614
1836.0 523.93280029 4.10930061
1742.99987793 452.3012085 -34.57580948
1819.0 499.87347412 -0.99784029
1840.90661621 379.99996948 -4.07800817
1816.0 530.13244629 -1.78114998
1770.99987793 468.49996948 3.00002837
1835.98583984 529.99353027 2.00844598
1791.0 494.6541748 -2.68117762
1760.0 449.52713013 0.46553114
1770.99987793 499.84805298 -2.67995143
1844.0 500.61096191 -4.58132601
1706.18579102 342.49996948 34.9958725
1816.0 507.4107666 2.72010803
1834.08972168 538.79510498 10.00003052
1741.61303711 342.49996948 36.27722168
1789.19995117 486.69012451 0.62569976
1849.92199707 371.99996948 -1.9065516
1806.0 480.99996948 4.50002718
1856.4765625 372.26031494 -3.27432084
1806.0 484.6937561 -2.57014441
1835.40002441 523.31298828 2.96657205
1743.0 457.60922241 -2.06712365
1706.49816895 342.49996948 32.85826492
1735.0 451.21588135 6.08552074
1770.99987793 439.98043823 27.59108353
1857.28186035 378.99996948 2.2898581
1836.0 501.96908569 2.57284784
1858.35766602 379.99996948 -1.12258124
1743.05419922 479.18057251 -0.5236637
1828.41113281 371.99996948 4.77475643
1811.0 497.40948486 4.27668858
1836.0 491.52404785 1.06122458
1742.99987793 495.51416016 -0.29124692
1743.26049805 483.49996948 4.10538101
1836.0 519.99438477 2.48779798
1825.16418457 384.99996948 4.3468194
1851.31164551 384.99996948 3.60881233
1850.15197754 371.99996948 -5.84751034
1790.66845703 483.32687378 -0.68476796
1743.01416016 479.6008606 -2.18605947
1825.73193359 364.0 -2.99997807
1742.99987793 459.90090942 -10.87870216
1787.92358398 525.99987793 2.98e-05
1835.94580078 522.20477295 2.12786698
1760.0 450.65640259 2.81338716
1770.99987793 449.13143921 37.58304214
1733.38623047 333.49996948 38.95134735
1742.99987793 466.99240112 2.59372211
1851.76000977 378.99996948 -3.31543279
1857.58972168 372.45355225 1.80535305
1816.0 521.92193604 1.90660501
1828.16992188 372.05407715 -1.24229896
1770.99987793 467.15420532 -2.68117714
1791.0 498.91900635 0.69226247
1819.0 523.17285156 -2.82970953
1806.0 492.84234619 -0.77083707
1849.5 384.99996948 2.295e-05
1827.98718262 372.59997559 0.31896496
1811.0 521.66473389 -1.20662713
1835.40002441 530.0 3.159e-05
1791.0 509.84585571 2.77075171
1771.0 501.39517212 0.78579783
1735.0 450.03585815 2.682e-05
1826.8001709 406.99996948 1.08027792
1806.0 495.25018311 3.16232443
1825.29968262 378.99996948 -3.78562069
1835.73962402 521.90765381 -0.32733411
1735.0 483.12054443 6.48894644
1854.0 371.99996948 4.50002146
1853.18811035 408.5 -3.14703584
1838.42224121 471.05606079 -9.99997044
1811.0 500.11569214 1.82524383
1828.4609375 364.0 4.72758913
1760.0 487.47280884 0.46553338
1697.49243164 387.48776245 -38.9999733
1852.90185547 379.99996948 -4.36448622
1836.0 510.17749023 -2.88530231
1836.0 521.88879395 -2.06350207
1743.45361328 449.99508667 -1.96501219
1739.60375977 342.49996948 -38.40946198
1836.0 524.37841797 6.29452085
1811.0 510.99996948 -4.49996853
1837.71411133 379.99996948 -4.31430435
1791.99987793 525.88696289 3.9985702
1825.14746094 408.5 3.04090977
1743.0 455.20251465 -6.273036
1816.0 511.64926147 -2.92939377
1806.0 506.64221191 1.12263393
1811.0 512.86096191 4.09719038
1742.99987793 482.46185303 -4.37858677
1818.38635254 371.99996948 -4.18168926
1811.0 478.42980957 -3.69377899
1816.0 513.90509033 -0.74837202
1742.99987793 499.84573364 -2.68117714
1826.89013672 406.99996948 -0.80441469
1852.5904541 371.99996948 4.27668238
1742.99987793 453.49996948 4.50002384
1806.0 523.01531982 -1.28638744
1697.89807129 342.49996948 39.15077209
1770.99987793 442.99996948 -22.99996948
1811.0 506.58892822 -0.90099949
1743.0 452.74353027 6.455863
1822.87744141 379.99996948 4.35774612
1743.0 478.91348267 0.36518312
1836.0 530.11572266 1.82524574
1770.99987793 497.1541748 -2.68117714
1852.10925293 408.5 2.6435256
1788.0 456.40939331 -0.73212779
1836.0 529.04840088 3.44913602
1787.0 454.47689819 3.87927699
1835.94580078 498.62466431 -3.47020841
1819.0 529.34136963 2.19883466
1854.9934082 372.59997559 3.8749218
1743.0 479.7875061 -5.33547211
1836.0 483.8309021 -0.99753982
1855.20666504 371.99996948 4.33522367
1851.93444824 371.99996948 4.11143255
1830.32470703 364.0 -1.49949336
1699.14685059 342.49996948 -39.44375992
1820.31103516 371.99996948 -2.74795985
1836.0 509.11331177 -2.33472252
1705.48986816 333.49996948 36.48048401
1853.61157227 378.99996948 -3.98107934
1789.19995117 450.30981445 -0.62566996
1704.92626953 342.49996948 -28.75938988
1850.56213379 372.01419067 2.85719585
1819.0 498.99822998 -2.651191
1806.0 523.67102051 -2.26715207
1850.01416016 378.99996948 0.33685067
1743.45361328 453.49996948 -4.01811266
1848.14477539 371.99996948 -3.83730769
1854.1895752 385.0 -3.24442983
1819.0 499.28173828 2.28986549
1789.80004883 496.60571289 3.1940639
1729.57128906 342.49996948 33.96029282
1836.0 509.77282715 2.73866844
1851.63598633 355.75823975 -6.58817387
1827.46411133 367.99996948 2.193e-05
1827.28186035 372.59997559 2.28985763
1742.99987793 464.0 10.00002766
1743.26037598 457.16769409 -1.8445152
1735.0 480.03585815 2.861e-05
1791.99987793 492.30718994 1.54452813
1819.0 524.41668701 -3.67328548
1819.0 528.84350586 2.81339216
1827.1920166 372.20251465 -2.6528585
1789.80004883 524.34552002 -2.79742479
1811.0 497.11001587 -4.36132383
1824.79187012 406.0 3.92249918
1743.01416016 487.9559021 -0.35641974
1736.95996094 342.49996948 -26.57126236
1811.0 479.13897705 4.09718847
1854.97607422 372.59997559 -3.87904572
1691.99987793 352.49996948 27.00002098
1836.0 523.10662842 -3.44653583
1857.46411133 367.99996948 2.193e-05
1857.23205566 372.35461426 2.44459105
1729.0 352.5 -27.04997826
1811.0 499.2729187 3.08838177
1788.0 480.58093262 0.6922614
1806.0 495.20681763 -3.15189362
1836.0 530.45428467 -1.14949501
1847.30175781 371.99996948 2.03477788
1786.0 497.76776123 2.90945172
1743.0 484.7048645 4.4394269
1836.0 497.03808594 -4.37858772
1836.0 530.02172852 -2.01864219
1791.99987793 497.78665161 -3.57978725
1849.97705078 372.35461426 0.48777843
1733.5 342.49996948 27.00002098
1735.0 458.41943359 4.24847794
1816.0 529.58917236 -2.72004604
1817.74462891 371.99996948 -1.76768172
1826.92944336 406.99996948 -0.64925891
1703.68066406 342.49996948 38.35733795
1855.04772949 378.99996948 3.86036897
1819.0 496.79190063 3.92250443
1821.94116211 406.99996948 2.18197846
1827.17163086 379.99996948 3.19224167
1789.80004883 522.85290527 0.81184506
1770.99987793 459.90090942 10.87876415
1836.0 532.45581055 -0.75641274
1697.5 333.49996948 -38.9999733
1816.0 482.18743896 2.75501633
1705.87976074 333.49996948 -30.22939873
1742.99987793 438.91369629 -27.91575623
1742.99987793 480.95306396 -3.7097261
1836.0 527.74291992 6.26198912
1857.53759766 371.99996948 -2.93998766
1835.54638672 527.80529785 -3.58971071
1816.0 492.82824707 3.19224858
1834.57922363 379.99996948 -0.85406065
1835.98583984 498.00836182 -3.99352598
1791.99987793 522.25665283 -1.41765082
1827.19213867 379.99996948 3.171731
1835.40002441 499.57321167 1.79937613
1791.99987793 499.18795776 2.41959167
1806.0 491.5305481 -0.52366287
1697.49243164 387.48776245 27.05002213
1789.80004883 495.99996948 -3.24997306
1816.0 524.88989258 4.36138487
1835.88757324 494.962677 4.12185049
1770.99987793 442.99996948 -22.99996948
1811.0 512.03808594 4.37864733
1791.0 494.81253052 2.75501728
1819.0 494.8609314 3.83579493
1836.0 494.29742432 -6.27303362
1806.0 524.159729 2.67982483
1742.99987793 501.23739624 -1.22715533
1770.99987793 450.12954712 2.98154354
1811.0 476.5305481 -0.52366382
1735.0 477.17538452 -1.49980903
1834.64233398 379.99996948 -1.12258124
1857.27282715 371.99996948 3.08837438
1694.0 333.49996948 35.50001526
1743.45361328 457.39663696 -0.98060936
1704.92626953 342.49996948 37.2406044
1789.19995117 455.85366821 2.2418201
1816.0 513.15643311 2.08599639
1743.0 459.36383057 -2.80466676
1858.86975098 371.99996948 4.30553865
1816.0 514.46356201 2.87827468
1739.00012207 455.23202515 3.0000267
1816.0 528.89324951 -3.44653559
1817.23278809 371.99996948 1.78995395
1835.88757324 527.03729248 4.1218524
1819.0 494.20559692 -3.5749135
1821.22851563 408.5 1.69846416
1743.0 478.63021851 4.30554485
1742.99987793 442.99996948 23.0000248
1697.5 342.49996948 -38.9999733
1825.68127441 408.5 2.78133154
1836.0 478.94363403 -2.18525147
1849.53051758 379.99996948 0.52371496
1742.99987793 499.61993408 -2.78295207
1806.0 526.52362061 -4.46939325
1819.0 498.84350586 2.81339025
1811.0 515.02178955 2.01870441
1835.40002441 522.92370605 2.55653954
1836.0 482.22705078 -2.73860931
1824.0 372.45358276 -4.01811743
1739.00012207 451.76791382 3.0000267
1825.09814453 379.99996948 4.36453199
1821.53686523 385.0 2.12329626
1770.99987793 457.99996948 2.608e-05
1820.79528809 372.45355225 -2.42384481
1816.0 508.45098877 3.71018553
1743.11242676 479.37817383 1.03733432
1806.0 498.26617432 3.88775229
1732.31921387 342.49996948 27.6427002
1836.0 529.66015625 -2.61771774
1851.08410645 364.0 5.80930424
1742.99987793 455.17993164 -4.17444468
1855.79736328 372.59997559 -3.57328367
1819.44848633 371.99996948 4.64044094
1835.30615234 379.99996948 -2.57015085
1821.9140625 406.99996948 -2.15645409
1820.07788086 372.59997559 0.79382026
1824.0 371.99996948 4.60002184
1844.0 532.10968018 2.21845436
1835.54638672 529.09014893 -2.5682354
1811.0 530.47869873 0.43694612
1695.1809082 384.5428772 27.05002213
1765.27050781 380.39993286 -38.9999733
1811.0 498.57012939 -3.6937778
1819.0 492.3480835 1.63649786
1853.14587402 371.99996948 4.42072439
1848.57006836 364.0 3.57307673
1816.0 496.52365112 4.46945381
1820.39123535 379.99996948 2.68826556
1760.0 487.37966919 -0.97509199
1828.5 379.99996948 2.265e-05
1835.69458008 384.99996948 -3.05750227
1819.56225586 372.01419067 0.53805119
1770.99987793 485.51864624 4.021842
1816.0 472.99996948 10.0000267
1855.78662109 372.59997559 -3.57979465
1697.5 342.49996948 -26.99997711
1791.07641602 453.49993896 2.98e-05
1789.26794434 510.99990845 2.98e-05
1770.99987793 455.36096191 -4.09713364
1820.12036133 406.0 0.97514528
1816.0 491.86749268 1.7812109
1788.0 484.23272705 2.90930486
1852.30249023 406.99996948 2.47360039
1835.93579102 536.61706543 10.00003052
1811.0 521.50762939 -0.26265144
1844.0 519.75750732 1.81308544
1836.0 490.83895874 3.95250463
1806.0 493.63711548 -2.23243237
1816.0 530.07269287 -1.91381311
1836.0 529.69372559 2.57020521
1791.0 509.18847656 2.39285827
1742.99987793 457.99230957 -0.26265904
1838.45739746 384.99996948 -4.46913052
1696.26049805 333.49996948 27.68352318
1811.0 477.63638306 -2.99491024
1744.0 342.49996948 -26.99997711
1742.36914063 342.49996948 -34.29776001
1742.99987793 470.89257813 1.80964923
1816.0 522.8324585 3.19653034
1821.42980957 384.99996948 -3.69378495
1789.80004883 526.70367432 -3.17364931
1811.0 515.11572266 1.82524467
1771.0 433.5 -9.99999046
1824.0 356.07003784 7.00002098
1806.0 523.73376465 -3.88769126
1811.0 514.46356201 2.87827468
1786.0 501.44522095 0.57479739
1827.75915527 384.99996948 -2.47363019
1806.0 508.5322876 -1.70731544
1854.0 372.01416016 4.47030163
1828.11572266 379.99996948 -1.8251915
1770.99987793 496.57113647 -2.29768085
1786.0 465.62417603 0.85654855
1835.40002441 529.92205811 -0.79376638
1806.0 496.87136841 3.13100219
1836.0 492.89147949 -5.7086091
1735.0 489.99996948 2.921e-05
1824.3873291 371.99996948 4.5836854
1789.80004883 523.91314697 2.49436498
1839.37890625 379.99996948 -4.48399544
1836.0 479.28652954 2.46256733
1823.35668945 378.99996948 3.9497366
1850.21875 364.0 5.28704357
1835.40002441 521.99993896 3.111e-05
1695.19873047 333.49996948 28.61804962
1835.73962402 498.47647095 -3.27431321
1819.0 529.87969971 0.97515267
1819.0 528.30285645 -3.27226496
1760.0 453.88833618 3.98112917
1843.5 379.99996948 2.265e-05
1857.15100098 371.99996948 -3.21257567
1858.58496094 371.99996948 0.36893174
1857.74328613 378.99996948 1.41770446
1727.35656738 397.49996948 28.00001526
1854.79187012 406.0 3.92249918
1849.0793457 371.99996948 4.97896433
1735.0 488.31329346 -4.36874914
1735.0 477.0440979 0.75614285
1787.0 486.68795776 -2.41953278
1858.4609375 364.0 4.72758913
1789.80004883 493.23239136 1.70424581
1743.0 447.02307129 0.54737216
1849.70385742 379.99996948 -1.34896123
1836.0 497.91381836 4.07276964
1816.0 500.48391724 -0.37890175
1835.73962402 493.67572021 -3.3840909
1835.88757324 524.090271 3.79721785
1787.0 479.62023926 0.97514963
1852.34289551 372.35461426 -3.69810867
1835.73962402 522.06549072 1.17222309
1858.04516602 371.99996948 -5.71386242
1824.0 372.59997559 4.00002193
1743.45361328 487.00485229 1.9650681
1849.53076172 379.99996948 0.54263198
1854.47888184 378.99996948 3.97281814
1850.51098633 364.0 5.48464727
1835.73962402 527.00189209 3.98130751
1806.0 522.76525879 0.31557679
1806.0 480.99990845 -2.99999118
1743.0 488.08499146 -0.36888048
1789.19995117 481.53945923 -2.59384513
1770.87609863 395.30966187 27.05002213
1789.67578125 481.17288208 0.68312883
1693.56225586 342.49996948 -33.89769745
1704.92944336 333.49996948 -28.76343155
1851.00170898 378.99996948 2.65124345
1836.0 519.73803711 1.74298191
1816.0 509.13900757 4.09719038
1819.0 528.68695068 -2.9665091
1742.99987793 449.79022217 2.54692507
1851.39404297 371.99996948 -3.79245615
1735.0 455.73699951 6.10298586
1743.45361328 480.83822632 3.01012945
1816.0 499.99707031 -2.06858301
1760.0 454.54769897 -3.86031938
1735.71496582 342.49996948 -26.50621605
1742.99987793 449.83972168 -2.61772418
1790.58862305 483.15402222 0.76961517
1836.0 492.21875 -5.28699255
1853.21203613 406.0 -3.92343092
1770.99987793 469.84805298 -2.67995143
1790.8548584 483.73129272 0.30612946
1836.0 483.99484253 0.17515054
1742.99987793 485.97363281 3.75915694
1822.41674805 378.99996948 -3.67329431
1806.0 508.4515686 3.71104717
1819.0 522.6585083 -2.19877172
1806.0 528.60626221 -1.94147229
1771.0 471.49481201 -0.17508864
1816.0 480.19552612 2.89016294
1854.11303711 378.99996948 -3.99851608
1789.19995117 454.29208374 3.15216184
1811.0 484.58920288 -2.7200489
1787.0 457.37966919 -0.97509378
1742.99987793 442.67211914 24.78068352
1836.0 513.76843262 1.15893042
1841.99487305 379.99996948 3.36359
1826.4765625 372.26031494 -3.27432084
1743.59997559 449.49996948 2.679e-05
1743.0 483.94659424 4.57829714
1864.73742676 406.72717285 -9.99999046
1771.0 497.31253052 -2.75495648
1836.0 524.17919922 -4.22428322
1744.0 352.5 -26.99997711
1691.99987793 352.49996948 27.05002213
1743.59997559 456.98886108 1.95645142
1760.0 485.08325195 3.6733458
1836.0 530.42486572 -0.83105189
1822.90905762 372.01419067 4.33500147
1859.68457031 357.04425049 -4.08602619
1819.0 524.20556641 3.57497454
1742.99987793 440.56570435 27.29153252
1824.98059082 372.45355225 -3.89662004
1742.99987793 479.78961182 2.54624343
1743.59997559 449.49996948 2.679e-05
1806.0 482.27581787 2.71517038
1693.61328125 333.49996948 -34.20775223
1836.0 499.28393555 -3.22105932
1760.0 455.82684326 3.25357914
1743.0 479.04562378 -1.14949799
1836.0 508.0947876 -0.74837232
1816.0 512.10998535 4.36138344
1693.32128906 380.86968994 39.00001526
1743.0 487.03762817 2.94003892
1771.0 453.22622681 -3.23843956
1822.83581543 384.99996948 -4.3467741
1770.99987793 457.99996948 2.608e-05
1819.92797852 371.99996948 5.69373798
1770.99987793 457.97872925 -0.43689087
1806.0 506.86746216 1.7812115
1742.99987793 454.81777954 -16.03924561
1816.0 529.15100098 -3.2125659
1826.70166016 406.99996948 -1.30577374
1834.9876709 538.24688721 -9.99996758
1851.14428711 378.99996948 2.8009696
1822.41125488 408.5 2.83527374
1819.0 529.28173828 2.28986716
1816.0 509.75930786 -2.73141003
1844.0 502.37774658 -1.25499344
1834.63549805 384.99996948 1.09816158
1826.16125488 408.5 -2.42757797
1819.0 497.78665161 -3.57978725
1829.11230469 371.99996948 4.78237963
1836.0 500.48022461 -4.70983887
1806.0 494.87738037 -4.35769367
1835.98583984 530.43756104 -0.53799736
1819.0 523.16241455 -2.81926489
1816.0 515.35766602 1.12263453
1836.0 529.28393555 -3.22105742
1819.0 529.8793335 0.97650653
1822.26196289 372.11239624 -3.87868857
1742.99987793 497.27279663 -2.73736572
1836.0 510.99990845 -2.99996924
1844.0 519.54412842 -0.75641358
1835.40002441 495.02041626 -3.87816811
1743.0 458.36972046 -4.30548906
1742.99987793 496.69033813 2.39264226
1770.99987793 442.90625 23.96360016
1851.08996582 406.99996948 0.73000103
1729.0 352.49996948 27.05002213
1836.0 489.62216187 -1.25499415
1735.0 450.06982422 5.52135277
1860.25537109 371.99996948 1.76772594
1811.0 485.29602051 -1.34895492
1819.0 529.85345459 1.07261682
1735.0 481.76791382 3.00002861
1857.09020996 372.45355225 -2.56824493
1770.99987793 500.89257813 1.80967522
1790.8729248 483.77081299 0.22533536
1760.0 480.29217529 2.3895781
1791.0 478.42236328 1.53505802
1855.73193359 367.99996948 -2.99997783
1827.34143066 378.99996948 -2.19878054
1760.0 483.83679199 -3.98576546
1771.0 483.87817383 -3.22788954
1789.19995117 482.70776367 -3.15213203
1811.0 515.48394775 0.37896225
1835.94580078 527.06182861 4.2194972
1811.0 485.48397827 0.37896049
1844.0 489.67529297 1.49954426
1694.0 333.49996948 -30.4999752
1770.99987793 457.99230957 0.2627112
1822.58215332 356.28359985 6.85257053
1739.00012207 481.76791382 -2.99997091
1836.0 523.42974854 3.69383931
1743.0 482.37716675 4.46148443
1806.0 478.0916748 -0.73677301
1733.21435547 333.49996948 38.87295914
1697.5 342.49996948 -38.9999733
1853.36889648 364.0 6.4693141
1742.99987793 498.49996948 -2.99996877
1811.0 498.54898071 -3.71012545
1849.54541016 371.99996948 1.14757264
1826.62463379 372.05407715 -3.47021627
1826.60668945 355.72937012 -6.49623585
1838.26794434 471.09066772 -9.99997044
1743.59997559 450.84817505 2.9986043
1770.99987793 456.04669189 3.70987511
1791.0 479.73397827 -2.72080302
1851.33825684 372.45355225 -3.01007891
1849.8626709 372.20251465 -0.33093989
1811.0 500.46939087 -0.52366239
1700.73742676 333.49996948 -39.45798492
1852.21875 379.99996948 4.13250446
1760.0 454.49783325 -3.87350535
1791.0 480.99990845 3.00002098
1811.0 512.10998535 -4.36132288
1854.37890625 371.99996948 -4.48399591
1856.98461914 408.5 -1.28638744
1836.0 483.76843262 1.15892875
1824.0 372.26040649 -4.10532999
1816.0 509.91970825 -2.80024314
1835.94580078 529.88708496 1.95492804
1851.69445801 408.5 2.29069591
1835.40002441 522.02893066 0.47894415
1811.0 483.24710083 3.89880395
1844.0 532.49993896 3.174e-05
1811.0 500.41098022 0.90105957
1703.48034668 333.49996948 -38.48986435
1835.64526367 499.11657715 -2.59017253
1821.22924805 406.99996948 1.15409863
1742.99987793 467.25930786 -2.73141265
1842.27526855 379.99996948 3.08818889
1806.0 482.69863892 -2.47347355
1819.0 523.67303467 3.25358319
1743.0 480.894104 3.79250693
1771.0 465.95587158 -1.59022212
1825.13903809 372.59997559 -3.83574319
1743.0 449.06842041 1.23349988
1850.14916992 372.45355225 1.14729559
1730.68200684 333.49996948 36.7375946
1770.99511719 397.49996948 -27.9999752
1839.99987793 494.26791382 3.00002933
1860.69824219 371.99996948 -2.03473353
1827.08837891 379.99996948 -3.27290869
1816.0 496.37890625 4.48404789
1835.54638672 497.80529785 -3.58971262
1760.0 484.54769897 -3.86031747
1791.0 479.1885376 -2.3933053
1806.0 508.59402466 1.79219246
1816.0 521.86743164 1.78121269
1816.0 476.70391846 1.34901226
1836.0 513.99450684 0.18595619
1788.0 482.15420532 2.68123603
1789.19995117 486.74865723 -0.09351969
1835.64526367 500.03952026 0.32317242
1854.0 371.99996948 4.50002146
1825.73193359 364.0 3.00002146
1835.54638672 525.01934814 3.89667368
1760.0 453.26647949 -3.99315262
1824.99353027 378.99996948 3.87492228
1854.0 372.35452271 4.05254221
1742.99987793 423.84170532 -27.99997139
1835.64538574 495.99996948 4.05254936
1826.97961426 406.99996948 -0.34910393
1740.55895996 342.49996948 37.63267899
1827.43786621 372.01419067 -2.85715175
1857.56518555 372.01419067 2.69655228
1771.0 452.04202271 2.90465355
1742.99987793 471.49996948 2.98e-05
1819.0 493.73666382 -3.29807258
1816.0 513.40582275 1.79219282
1835.98583984 525.99993896 -4.47008944
1771.0 456.17285156 -1.85021758
1806.0 513.76837158 1.15892291
1850.41064453 379.99996948 -2.72005534
1854.0 372.20245361 -4.15058708
1743.01416016 457.39910889 2.18611526
1806.0 485.48452759 -0.38666192
1743.35473633 449.57006836 0.98903883
1819.0 495.00210571 3.87356186
1834.99414063 538.24133301 10.00003052
1850.75 385.0 2.98e-05
1855.78686523 371.99996948 6.24992609
1786.0 498.49996948 3.00002098
1760.0 487.24325562 -1.41765285
1835.73962402 499.66766357 1.84457231
1789.80004883 494.54031372 2.90435553
1770.99987793 456.48147583 3.37044907
1844.0 491.53900146 -4.72753811
1821.42980957 379.99996948 3.69383073
1787.0 452.52304077 -3.87922311
1820.64758301 409.31765747 10.00002003
1743.0 449.04541016 -1.14752376
1816.0 528.24707031 3.89880657
1770.99987793 481.61050415 -4.08392048
1849.76318359 372.11239624 -0.33889952
1827.46411133 364.0 2.17e-05
1787.0 456.68795776 -2.41953468
1835.40002441 499.87969971 0.97515082
1735.0 451.76791382 -2.99997282
1743.0 456.93014526 5.52135277
1735.0 481.76791382 -2.99997091
1819.0 492.12023926 -0.9750917
1734.7611084 403.19110107 -38.99996948
1827.70739746 372.11239624 -2.07857275
1819.0 522.25665283 -1.41765082
1742.99987793 442.90625 -23.96354294
1742.99987793 453.73046875 -31.30595398
1707.24926758 393.14834595 -38.99996948
1770.99987793 465.77734375 1.25966597
1743.0 447.63613892 2.80472088
1858.5 384.99996948 2.295e-05
1742.99987793 442.99996948 23.0000248
1836.0 480.35067749 -2.92939544
1835.54638672 495.99996948 4.01816893
1806.0 494.79330444 4.33523035
1837.91027832 471.20480347 -9.99997044
1770.99987793 398.0335083 -27.9999752
1743.26037598 487.43447876 1.17222118
1819.0 527.79437256 3.57497454
1760.0 457.37966919 0.97514826
1822.04370117 371.99996948 4.16326714
1791.0 478.84640503 2.08899379
1816.0 494.39135742 -4.2070446
1853.02087402 406.99996948 2.83711314
1743.59997559 485.29745483 3.57333469
1825.03735352 372.11239624 -4.12179899
1819.0 495.00650024 -3.87487006
1742.42871094 342.49996948 -33.96025467
1820.49511719 372.45355225 1.96506107
1836.0 522.28955078 -2.54618239
1770.99987793 496.0267334 1.69786072
1806.0 477.28961182 2.546242
1743.01416016 450.96920776 3.68479705
1835.88757324 530.12182617 1.03733718
1743.0 479.27566528 -1.82073474
1820.84899902 379.99996948 3.21262026
1811.0 515.29602051 -1.34895313
1791.0 483.87567139 0.85654855
1835.40002441 529.65179443 -1.63643706
1771.0 433.5 -9.99999046
1827.28186035 406.0 2.28985977
1791.0 510.35058594 -2.92938948
1816.0 500.35769653 1.12263358
1760.0 450.69903564 2.85566902
1765.27050781 380.39993286 27.05002213
1828.21936035 372.11239624 -0.5115512
1844.0 489.49996948 2.918e-05
1827.78125 364.0 -5.28700018
1735.0 456.93014526 -5.52129889
1821.11779785 372.05407715 -3.2594552
1743.11242676 450.23117065 -2.71665549
1835.98583984 521.54406738 -0.35641775
1791.07641602 453.49993896 2.98e-05
1818.83898926 371.99996948 3.9524982
1816.0 513.55334473 1.57518446
1819.2376709 356.86434937 -5.13042355
1693.83349609 382.08596802 27.05002213
1820.61010742 372.11239624 -2.56391549
1743.05419922 455.4548645 3.88716722
1789.80004883 527.32000732 -2.97111273
1836.0 500.56851196 -0.55404937
1770.99511719 397.49996948 28.00001526
1819.53063965 379.99996948 0.52371496
1851.51086426 408.5 -2.08958983
1821.42724609 364.0 -5.96911812
1787.0 487.40643311 0.86627442
1839.99987793 497.73202515 -2.9999702
1836.0 478.45587158 1.59025705
1743.0 477.63613892 2.80472255
1743.0 453.12054443 -6.48889017
1811.0 506.50762939 -0.26265234
1770.99987793 470.48764038 2.2469759
1835.88769531 495.99996948 4.25049734
1820.11218262 379.99996948 -2.26617575
1825.14172363 378.99996948 3.83504748
1844.0 524.2678833 -2.99996829
1806.0 530.02178955 2.01870513
1743.20251465 486.81030273 -2.50369406
1760.0 479.75390625 1.41181052
1827.09020996 372.45355225 -2.56824493
1742.45800781 333.49996948 -32.26242065
1856.59387207 408.5 -1.96039677
1693.8482666 342.49996948 -35.09871674
1854.0 356.07003784 7.00002098
1742.99987793 437.99996948 -27.99997139
1743.59997559 486.15020752 -2.99590325
1821.28503418 385.0 -1.78650022
1770.99987793 482.46185303 4.37864685
1819.0 524.86090088 3.83579683
1823.02307129 378.99996948 3.8792727
1857.19213867 384.99996948 -3.17168546
1854.37768555 408.5 -3.22875381
1771.0 483.12173462 3.22791934
1835.64538574 525.99993896 4.05255079
1836.0 524.79327393 -4.33517027
1855.58325195 378.99996948 -3.67329431
1836.0 510.99990845 -2.99996924
1836.0 478.24499512 -1.18742585
1820.12036133 378.99996948 -0.97509849
1789.19995117 454.10571289 -3.1940341
1852.39575195 371.99996948 6.29927158
1742.46472168 333.49996948 32.3254509
1836.0 478.01062012 -0.25259256
1742.99987793 487.08889771 2.71445894
1849.5 384.99996948 2.295e-05
1811.0 510.99996948 4.50002909
1788.0 482.92858887 2.94586778
1691.99987793 352.5 -27.04997826
1855.17871094 384.99996948 -4.34286642
1828.3614502 384.99996948 1.11006892
1791.99987793 491.99993896 2.933e-05
1742.42626953 333.49996948 33.97599792
1850.84887695 379.99996948 3.21262026
1850.39111328 379.99996948 2.68826556
1742.99987793 451.0710144 -36.07103729
1788.0 486.23141479 -1.24063182
1821.72509766 372.45355225 -3.31215787
1811.0 521.92193604 1.90660477
1824.71691895 408.5 -3.16998363
1817.73803711 371.99996948 1.74297309
1819.0 496.23345947 -3.99315023
1849.20471191 355.49377441 5.10278559
1819.0 497.07254028 -3.85348296
1742.99987793 456.87042236 -2.98146534
1691.99987793 352.5 -27.04997826
1851.53662109 372.05407715 -3.58656073
1771.0 454.88217163 -2.94142962
1806.0 513.9050293 0.74842572
1743.35473633 454.48898315 -3.92989635
1742.99987793 471.49484253 -0.17509237
1793.0 385.0 10.00002003
1811.0 496.52365112 4.46945381
1760.0 449.49996948 2.679e-05
1806.0 498.47360229 3.75915766
1742.99987793 469.61993408 -2.78295207
1824.18969727 385.0 -3.24442983
1857.74597168 406.0 1.41180599
1743.59997559 479.57791138 -0.79376942
1695.49621582 385.0178833 -27.04997444
1835.98583984 530.28405762 -1.27629972
1703.37194824 391.76391602 -27.04997444
1743.0 456.41583252 -5.8092556
1789.80004883 498.74719238 -1.73684955
1822.99804688 372.26031494 3.98129869
1844.0 491.62509155 -4.80778408
1820.0222168 372.20251465 1.18509328
1770.99987793 467.69552612 -2.89010262
1786.0 466.34640503 -2.08896399
1760.0 453.61300659 3.99856591
1738.5 333.49996948 39.00001526
1816.0 482.83004761 2.37869716
1819.0 494.41668701 3.67334652
1811.0 524.88995361 4.36138439
1789.80004883 497.83984375 2.68024206
1857.04772949 371.99996948 3.4453733
1791.0 498.99993896 0.00049266
1816.0 479.13897705 4.09718847
1826.27490234 372.45355225 3.31220222
1743.45361328 449.64910889 -1.14724672
1856.92944336 406.99996948 -0.64925891
1826.74511719 378.99996948 2.90929484
1693.55664063 333.49996948 -32.46801758
1825.73193359 367.99996948 3.0000217
1743.11242676 450.93603516 -3.38990545
1835.98583984 500.33493042 1.0909791
1816.0 482.71340942 2.46256757
1819.0 521.99993896 3.111e-05
1816.0 492.30618286 -2.57014394
1695.19873047 333.49996948 -37.38194275
1827.87939453 378.99996948 0.97649747
1819.0 494.47128296 -3.69893551
1819.63549805 384.99996948 1.09816158
1857.19641113 384.99996948 -3.16751242
1743.0 481.54360962 -4.16321564
1856.99487305 379.99996948 3.36359
1849.71594238 372.01419067 1.27635336
1821.76000977 378.99996948 -3.31543279
1821.71594238 364.0 -6.08547163
1835.40002441 530.0 3.159e-05
1828.0 372.59997559 2.221e-05
1760.0 480.21820068 2.2898643
1788.0 455.62811279 -2.11444497
1702.5 333.49996948 39.00001526
1771.0 501.40505981 -0.74839592
1743.01416016 453.49996948 -4.47025251
1816.0 506.50762939 -0.26265234
1835.64526367 522.07006836 -0.98898101
1691.99987793 342.49996948 -38.9999733
1806.0 496.85406494 4.42073059
1693.58520508 333.49996948 -31.95146751
1760.0 481.19708252 -3.27226806
1854.0 372.05404663 -4.35113764
1743.59997559 457.15185547 1.63649583
1835.88757324 494.26187134 -3.87868118
1811.0 512.6887207 -4.17514658
1770.99987793 449.57580566 -37.30120087
1836.0 529.71246338 -5.33546972
1820.75280762 408.5 -0.14096498
1743.0 487.02313232 -2.95756602
1740.92944336 333.49996948 37.23656845
1835.88757324 525.99993896 -4.25039625
1811.0 515.13244629 -1.7811507
1789.19995117 486.09295654 -1.96158886
1743.0 457.51220703 2.24989986
1742.99987793 501.39523315 0.78582394
1836.0 527.23339844 -4.43150806
1743.01416016 449.06231689 -0.53800231
1844.0 489.68945313 -1.55962098
1811.0 527.68865967 -4.17514563
1743.05419922 487.66989136 1.24235022
1856.83752441 378.99996948 2.81931877
1735.0 489.824646 1.49954426
1704.38195801 333.49996948 -37.8011055
1855.20483398 371.99996948 -4.43937588
1787.0 454.29190063 -3.92244792
1760.0 487.49996948 2.906e-05
1824.0 356.07003784 -6.99997854
1770.99987793 484.5380249 4.37863922
1760.0 449.80718994 -1.5444721
1789.19995117 450.38415527 -0.92673302
1743.0 478.28729248 -3.88298941
1742.99987793 449.57580566 37.30125427
1821.9074707 406.0 -3.4091773
1850.34814453 372.59997559 1.6364907
1743.0 484.131073 -6.46926308
1743.59997559 481.22628784 3.29243636
1851.75817871 408.5 -2.35375762
1743.11242676 479.26315308 0.33895025
1850.75 385.0 2.98e-05
1770.99987793 471.49996948 2.98e-05
1827.46411133 367.99996948 2.193e-05
1835.64526367 523.70568848 -3.34043813
1789.80004883 496.79293823 3.15195322
1742.99987793 466.02682495 1.69795752
1825.10998535 379.99996948 -4.36133099
1822.3112793 371.99996948 -4.17515516
1835.40002441 526.97644043 -3.87933803
1760.0 486.68795776 -2.41953278
1857.13098145 408.5 0.87150931
1787.0 487.37966919 0.97515011
1742.99987793 499.11706543 -2.93575978
1735.0 457.87484741 -4.80778551
1836.0 510.19549561 -2.89010382
1698.7097168 342.49996948 26.62935448
1771.0 481.22415161 -2.3202002
1811.0 506.64221191 1.12263393
1744.99987793 352.5 -27.04997826
1744.0 342.49996948 -38.9999733
1811.0 477.53640747 -2.87821531
1822.17199707 372.01419067 -4.07927322
1823.14855957 385.0 -3.13651562
1791.99987793 529.57415771 1.79775286
1844.0 502.49993896 2.995e-05
1819.0 499.99996948 2.98e-05
1743.0 483.49996948 -4.59997082
1742.99987793 437.99996948 28.00002289
1828.33496094 372.01419067 1.09097135
1825.17858887 379.99996948 4.3429122
1852.85083008 371.99996948 -6.39757776
